<svg width="65" height="65" viewBox="0 0 65 65" fill="none" xmlns="http://www.w3.org/2000/svg">
<path d="M7.61722 39.6094C6.91644 39.6094 6.34769 40.1781 6.34769 40.8789C6.34769 41.5797 6.91644 42.1484 7.61722 42.1484C8.318 42.1484 8.88675 41.5797 8.88675 40.8789C8.88675 40.1781 8.318 39.6094 7.61722 39.6094Z" fill="#5A75A3"/>
<path d="M7.61722 44.6875C6.91606 44.6875 6.34769 45.2559 6.34769 45.957V51.0352C6.34769 51.7363 6.91606 52.3047 7.61722 52.3047C8.31838 52.3047 8.88675 51.7363 8.88675 51.0352V45.957C8.88675 45.2559 8.31838 44.6875 7.61722 44.6875Z" fill="#5A75A3"/>
<path d="M64.365 44.6045C63.2599 42.5596 60.6701 41.651 58.3408 42.4917C58.3201 42.4992 58.2995 42.5072 58.2792 42.5157L45.6657 47.824C45.6893 47.6268 45.7031 47.4277 45.7031 47.2266C45.7031 44.4265 43.4251 42.1484 40.625 42.1484H32.4035C32.1855 42.1484 31.9702 42.0922 31.7804 41.9852L25.0731 38.2126C23.747 37.4653 22.2399 37.0703 20.7149 37.0703H15.016C14.492 35.5927 13.0809 34.5312 11.4258 34.5312H1.26953C0.568369 34.5312 0 35.0996 0 35.8008V58.6523C0 59.3535 0.568369 59.9219 1.26953 59.9219H11.4258C12.7887 59.9219 13.9932 59.2154 14.6669 58.1213C15.0654 58.29 15.4524 58.4858 15.8241 58.7088L22.4635 62.6925C24.9787 64.2021 27.8587 65 30.7925 65C33.343 65 35.8664 64.3518 37.5263 63.5317L61.9701 51.583C64.5927 50.5018 65.8529 47.3569 64.365 44.6045ZM12.6953 56.1133C12.6953 56.8111 12.1391 57.3828 11.4258 57.3828H2.53906V37.0703H11.4258C12.1258 37.0703 12.6953 37.6398 12.6953 38.3398V56.1133ZM60.98 49.2446C60.9121 49.2719 54.147 52.5818 36.4274 61.2427C34.6442 62.0511 32.7484 62.4609 30.7925 62.4609C28.3189 62.4609 25.8907 61.7882 23.7701 60.5154L17.1305 56.5316C16.5269 56.1694 15.8917 55.8634 15.2344 55.6145V39.6094H20.7149C21.8041 39.6094 22.8801 39.8913 23.8276 40.4252L30.535 44.1978C31.1036 44.5181 31.7498 44.6875 32.4035 44.6875H40.625C42.025 44.6875 43.1641 45.8265 43.1641 47.2266C43.1641 48.6352 42.0059 49.7656 40.625 49.7656H27.7189C25.6189 49.7656 23.9104 51.4742 23.9104 53.5742C23.9104 54.2754 24.4787 54.8438 25.1799 54.8438C25.881 54.8438 26.4494 54.2754 26.4494 53.5742C26.4494 52.8742 27.0189 52.3047 27.7189 52.3047H40.625C41.4893 52.3047 42.3377 52.0818 43.0847 51.6652L59.2307 44.8701C60.3614 44.4764 61.631 44.8863 62.1312 45.8118C62.8874 47.2106 62.2619 48.7317 60.98 49.2446Z" fill="#5A75A3"/>
<path d="M54.1164 12.3632L51.3298 8.18264C51.0195 7.7171 50.4411 7.50966 49.9057 7.67178C49.3702 7.83377 49.0039 8.32724 49.0039 8.88672C49.0039 10.6399 48.7716 12.3941 48.3213 14.0895C47.7793 12.9325 46.9111 11.8908 45.7829 11.1389C43.6296 9.70303 43.0459 6.78298 44.4821 4.62935L46.2518 1.97349C46.5114 1.58387 46.5356 1.08304 46.3147 0.670313C46.0936 0.257588 45.6635 0 45.1953 0C38.2005 0 32.3904 5.16915 31.3845 11.8883C31.2828 11.3957 31.2305 10.8892 31.2305 10.3746V6.34766C31.2305 5.78817 30.8643 5.29471 30.3288 5.13259C29.7934 4.97034 29.215 5.17778 28.9047 5.64345C27.9797 7.18542 23.6133 12.215 23.6133 20.635C23.6133 28.8575 30.3028 35.5469 38.5252 35.5469H41.7092C45.6916 35.5469 49.4364 33.996 52.2543 31.1796C55.0704 28.3622 56.6211 24.6174 56.6211 20.635C56.6211 17.6806 55.7549 14.8203 54.1164 12.3632ZM40.1172 33.0078C38.0171 33.0078 36.3086 31.2993 36.3086 29.1992C36.3086 28.6141 36.4375 28.055 36.6921 27.5328L40.1173 21.5863L43.2555 27.0338C43.3309 27.2114 43.9258 27.9221 43.9258 29.1992C43.9258 31.2993 42.2172 33.0078 40.1172 33.0078ZM50.4588 29.3842C49.0716 30.7708 47.4133 31.7877 45.6037 32.3855C46.1501 31.4482 46.4648 30.3601 46.4648 29.1992C46.4648 27.9251 46.0938 26.7545 45.4455 25.7502L41.2172 18.4092C41.2148 18.405 41.2119 18.4012 41.2094 18.397C40.7229 17.5729 39.5069 17.559 39.0171 18.4092L34.7907 25.7457C34.1291 26.7692 33.7695 27.9499 33.7695 29.1992C33.7695 30.357 34.0826 31.4424 34.6262 32.3779C29.7084 30.7408 26.1523 26.0956 26.1523 20.635C26.1523 17.1561 27.0257 13.7339 28.696 10.6779C28.7716 13.2185 29.7969 15.5962 31.6023 17.4016C31.9654 17.7646 32.5116 17.8731 32.9859 17.6767C33.4603 17.4802 33.7695 17.0173 33.7695 16.5038V13.9647C33.7695 8.54623 37.5612 3.99648 42.6304 2.82915L42.3693 3.22093C40.1567 6.5391 41.0561 11.0387 44.3743 13.2514C45.0145 13.6781 45.5453 14.2629 45.9098 14.9433C46.72 16.4531 46.3873 17.6585 46.4648 19.0428C46.4648 19.6316 46.8697 20.1431 47.4428 20.2784C48.016 20.4138 48.6067 20.1372 48.87 19.6104C49.0131 19.2686 50.5605 16.6543 51.2332 12.6152L52.0039 13.7714C53.3635 15.8104 54.082 18.1836 54.082 20.635C54.082 23.9394 52.7951 27.0467 50.4588 29.3842Z" fill="#5A75A3"/>
</svg>
