<svg width="58" height="58" viewBox="0 0 58 58" fill="none" xmlns="http://www.w3.org/2000/svg">
<path d="M57.5022 47.8901L47.7025 38.0904L52.5087 33.2843C52.9251 32.8679 53.0963 32.2656 52.9609 31.6924C52.8255 31.1192 52.4032 30.657 51.8445 30.4708L23.0079 20.8585C22.3974 20.6549 21.7241 20.8139 21.269 21.269C20.8138 21.7242 20.6549 22.3973 20.8585 23.0079L30.4707 51.8447C30.6571 52.4034 31.1193 52.8258 31.6924 52.9611C32.2654 53.0966 32.8679 52.9254 33.2843 52.5088L38.0905 47.7028L47.8902 57.5024C48.222 57.8342 48.6569 58.0001 49.0917 58.0001C49.5264 58.0001 49.9614 57.8343 50.2931 57.5024L57.5023 50.2932C58.166 49.6296 58.166 48.5537 57.5022 47.8901ZM49.0916 53.8978L39.2918 44.0982C38.6283 43.4345 37.5523 43.4345 36.8888 44.0982L32.8253 48.1617L25.1572 25.1573L48.1615 32.8254L44.098 36.8889C43.435 37.5519 43.4344 38.6285 44.098 39.292L53.8977 49.0917L49.0916 53.8978Z" fill="#D45C1E"/>
<path d="M22.0898 13.5938C23.0283 13.5938 23.7891 12.833 23.7891 11.8945V1.69922C23.7891 0.760797 23.0283 0 22.0898 0C21.1514 0 20.3906 0.760797 20.3906 1.69922V11.8945C20.3906 12.833 21.1514 13.5938 22.0898 13.5938Z" fill="#D45C1E"/>
<path d="M8.873 6.46987C8.20951 5.80627 7.13356 5.80627 6.46996 6.46987C5.80636 7.13347 5.80636 8.2093 6.46996 8.87291L13.6792 16.0821C14.3427 16.7457 15.4187 16.7457 16.0822 16.0821C16.7458 15.4185 16.7458 14.3427 16.0822 13.6791L8.873 6.46987Z" fill="#D45C1E"/>
<path d="M13.6792 28.0976L6.46996 35.3068C5.80636 35.9704 5.80636 37.0462 6.46996 37.7098C7.13345 38.3734 8.20951 38.3734 8.873 37.7098L16.0822 30.5006C16.7458 29.837 16.7458 28.7612 16.0822 28.0976C15.4186 27.434 14.3427 27.434 13.6792 28.0976Z" fill="#D45C1E"/>
<path d="M30.5005 16.0821L37.7098 8.87291C38.3734 8.2093 38.3734 7.13347 37.7098 6.46987C37.0463 5.80627 35.9703 5.80627 35.3067 6.46987L28.0975 13.6791C27.4339 14.3427 27.4339 15.4185 28.0975 16.0821C28.761 16.7457 29.837 16.7457 30.5005 16.0821Z" fill="#D45C1E"/>
<path d="M13.5938 22.0898C13.5938 21.1514 12.833 20.3906 11.8945 20.3906H1.69922C0.760797 20.3906 0 21.1514 0 22.0898C0 23.0283 0.760797 23.7891 1.69922 23.7891H11.8945C12.833 23.7891 13.5938 23.0283 13.5938 22.0898Z" fill="#D45C1E"/>
</svg>
