<svg width="65" height="65" viewBox="0 0 65 65" fill="none" xmlns="http://www.w3.org/2000/svg">
<path d="M64.6472 14.0151C64.6414 13.9204 64.6229 13.8263 64.5916 13.7369C64.58 13.7019 64.571 13.6686 64.5562 13.6348C64.5033 13.5168 64.4298 13.4094 64.3393 13.3174L51.3393 0.317383C51.2473 0.2264 51.1394 0.152873 51.0209 0.100505C50.9886 0.0856933 50.9558 0.0767008 50.9225 0.0650635C50.8305 0.0333252 50.7352 0.0142823 50.6384 0.00846354C50.6199 0.0121663 50.6004 0 50.5776 0H18.0776C15.0879 0.00370281 12.6646 2.42639 12.6609 5.41667V13.3899C5.21355 16.6742 0.407318 24.046 0.407318 32.1858C0.407318 40.3256 5.21355 47.6973 12.6609 50.9817V59.5833C12.6646 62.5736 15.0879 64.9963 18.0776 65H59.2443C62.2346 64.9963 64.6578 62.5736 64.6609 59.5833V14.0833C64.6609 14.0595 64.6493 14.0389 64.6472 14.0151ZM60.9624 13H52.7443C52.146 13 51.6609 12.5149 51.6609 11.9167V3.69857L60.9624 13ZM2.59673 32.1858C2.59038 27.2992 4.52853 22.6114 7.98378 19.1562C11.439 15.7009 16.1273 13.7628 21.0134 13.7691C21.6291 13.7691 22.2401 13.7993 22.8431 13.858C31.2199 14.6858 37.9616 21.1023 39.2026 29.4277C39.3465 30.3402 39.4221 31.2622 39.429 32.1858C39.4369 35.6553 38.4562 39.055 36.6027 41.9876C35.1327 44.331 33.1517 46.3114 30.8078 47.7804C25.1325 51.3446 17.9692 51.5446 12.1039 48.302C6.2387 45.0599 2.59779 38.8873 2.59673 32.1858ZM33.5955 48.4596C33.7436 48.3448 33.8901 48.2311 34.0351 48.1131C34.5699 47.6825 35.0819 47.225 35.5702 46.7426C36.0526 46.2543 36.5101 45.7428 36.9407 45.2085C37.0587 45.0636 37.1724 44.916 37.2872 44.7679C37.4184 44.5965 37.5607 44.4341 37.686 44.2596L46.9214 53.506C47.5328 54.1117 47.8772 54.9369 47.8772 55.7975C47.8772 56.6587 47.5328 57.4833 46.9214 58.0895C45.6423 59.3257 43.6137 59.3257 42.3346 58.0895L33.0872 48.8584C33.2617 48.7315 33.4252 48.5908 33.5955 48.4596ZM59.2443 62.8333H18.0776C16.2828 62.8333 14.8276 61.3781 14.8276 59.5833V51.8276C14.8948 51.8492 14.9651 51.8635 15.0334 51.8842C15.2069 51.9371 15.3825 51.9794 15.5581 52.028C15.9633 52.1365 16.3717 52.2449 16.7843 52.3258C16.9869 52.3682 17.1895 52.4073 17.3942 52.4433C17.8068 52.5157 18.2231 52.5729 18.641 52.621C18.8277 52.6422 19.0118 52.6686 19.199 52.6845C19.7994 52.7358 20.4035 52.7691 21.0134 52.7691C24.5945 52.7718 28.1133 51.8344 31.2178 50.0502L40.7964 59.6193C42.1405 61.0904 44.1845 61.705 46.1168 61.2184C48.0497 60.7323 49.5593 59.2242 50.0471 57.2918C50.5353 55.3595 49.9227 53.315 48.4522 51.9698L38.8778 42.3896C40.662 39.2851 41.5999 35.7664 41.5967 32.1858C41.5967 31.4997 41.5639 30.8189 41.4973 30.144C41.035 25.4107 38.9397 20.9864 35.5712 17.6301C31.7187 13.757 26.4766 11.5866 21.0134 11.6025C20.4035 11.6025 19.7994 11.6363 19.199 11.6871C19.0118 11.7035 18.8261 11.7294 18.6399 11.7511C18.2231 11.7976 17.8089 11.8569 17.3963 11.9288C17.1905 11.9648 16.9853 12.0039 16.7811 12.0468C16.3738 12.1314 15.9697 12.2309 15.5687 12.3414C15.3888 12.3901 15.209 12.4335 15.027 12.4874C14.9598 12.5081 14.8916 12.5223 14.8244 12.544V5.41667C14.8244 3.62187 16.2796 2.16667 18.0744 2.16667H49.4943V11.9167C49.4943 13.7115 50.9495 15.1667 52.7443 15.1667H62.4943V59.5833C62.4943 61.3781 61.0396 62.8333 59.2443 62.8333Z" fill="#5A75A3"/>
<path d="M57.0765 26H44.0765C43.4783 26 42.9932 26.4851 42.9932 27.0833C42.9932 27.6816 43.4783 28.1667 44.0765 28.1667H57.0765C57.6748 28.1667 58.1599 27.6816 58.1599 27.0833C58.1599 26.4851 57.6748 26 57.0765 26Z" fill="#5A75A3"/>
<path d="M57.0765 32.5H44.0765C43.4783 32.5 42.9932 32.9851 42.9932 33.5833C42.9932 34.1816 43.4783 34.6667 44.0765 34.6667H57.0765C57.6748 34.6667 58.1599 34.1816 58.1599 33.5833C58.1599 32.9851 57.6748 32.5 57.0765 32.5Z" fill="#5A75A3"/>
<path d="M58.1597 40.0833C58.1597 39.4851 57.6746 39 57.0763 39H42.993C42.3947 39 41.9097 39.4851 41.9097 40.0833C41.9097 40.6816 42.3947 41.1667 42.993 41.1667H57.0763C57.6746 41.1667 58.1597 40.6816 58.1597 40.0833Z" fill="#5A75A3"/>
<path d="M58.1598 20.5833C58.1598 19.9851 57.6748 19.5 57.0765 19.5H40.8265C40.2282 19.5 39.7432 19.9851 39.7432 20.5833C39.7432 21.1816 40.2282 21.6667 40.8265 21.6667H57.0765C57.6748 21.6667 58.1598 21.1816 58.1598 20.5833Z" fill="#5A75A3"/>
<path d="M28.7235 46.475C31.3657 45.068 33.5567 42.9426 35.0436 40.3448C35.1293 40.1951 35.2224 40.0502 35.3028 39.8983C35.3446 39.8201 35.3774 39.7391 35.4176 39.6608C35.5821 39.3445 35.7424 39.0282 35.8842 38.7045C36.0265 38.3807 36.1381 38.0729 36.2539 37.7544C36.2872 37.6624 36.3296 37.5725 36.3624 37.4794C39.1172 29.4681 35.2557 20.684 27.4904 17.2981C19.7246 13.9121 10.6607 17.0605 6.66588 24.5312C5.40851 26.8846 4.75365 29.5131 4.75999 32.1817C4.74994 37.9073 7.75715 43.2145 12.6739 46.1481C17.5907 49.0823 23.6892 49.2088 28.7235 46.4814V46.475ZM14.2609 44.5448C13.0818 43.9021 12.0016 43.0928 11.0532 42.1417C10.3951 41.4842 9.80321 40.7643 9.28535 39.9914C9.02933 39.6085 8.79393 39.2154 8.57758 38.8118C5.317 32.6551 7.04462 25.0395 12.6427 20.8929C18.2408 16.7463 26.0294 17.3134 30.9684 22.227C35.3425 26.6423 36.3264 33.3941 33.3948 38.8743V38.8833C32.1031 41.3001 30.1226 43.279 27.7052 44.5697C23.5115 46.848 18.4477 46.84 14.2609 44.5491V44.5448Z" fill="#5A75A3"/>
<path d="M29.2925 28.3552L27.6961 25.9603C27.5184 25.6936 27.187 25.5747 26.8802 25.6676C26.5735 25.7604 26.3637 26.0431 26.3637 26.3636C26.3637 27.368 26.2306 28.3728 25.9726 29.3441C25.6621 28.6813 25.1648 28.0846 24.5184 27.6538C23.2849 26.8312 22.9505 25.1585 23.7733 23.9247L24.7871 22.4033C24.9358 22.1801 24.9496 21.8931 24.8231 21.6567C24.6965 21.4203 24.4501 21.2727 24.1818 21.2727C20.1747 21.2727 16.8464 24.2339 16.2701 28.0831C16.2118 27.8009 16.1818 27.5107 16.1818 27.216V24.9091C16.1818 24.5886 15.9721 24.3059 15.6653 24.213C15.3586 24.1201 15.0272 24.2389 14.8495 24.5057C14.3196 25.389 11.8182 28.2703 11.8182 33.0938C11.8182 37.8042 15.6504 41.6363 20.3608 41.6363H22.1848C24.4661 41.6363 26.6114 40.7479 28.2257 39.1344C29.8389 37.5205 30.7273 35.3752 30.7273 33.0938C30.7273 31.4014 30.2311 29.7627 29.2925 28.3552ZM21.2728 40.1818C20.0697 40.1818 19.0909 39.203 19.0909 38C19.0909 37.6648 19.1648 37.3445 19.3106 37.0454L21.2728 33.6388L23.0706 36.7595C23.1138 36.8612 23.4546 37.2683 23.4546 38C23.4546 39.203 22.4758 40.1818 21.2728 40.1818ZM27.1971 38.1059C26.4024 38.9003 25.4525 39.4828 24.4158 39.8253C24.7288 39.2883 24.9091 38.665 24.9091 38C24.9091 37.2701 24.6965 36.5995 24.3252 36.0241L21.9029 31.8187C21.9016 31.8163 21.8999 31.8142 21.8984 31.8118C21.6197 31.3396 20.9232 31.3317 20.6426 31.8187L18.2214 36.0216C17.8424 36.6079 17.6364 37.2843 17.6364 38C17.6364 38.6632 17.8157 39.285 18.1272 39.8209C15.3099 38.8831 13.2728 36.222 13.2728 33.0938C13.2728 31.1008 13.773 29.1404 14.7299 27.3897C14.7733 28.8451 15.3606 30.2072 16.3949 31.2415C16.6029 31.4494 16.9157 31.5116 17.1874 31.3991C17.4592 31.2865 17.6364 31.0214 17.6364 30.7272V29.2726C17.6364 26.1686 19.8085 23.5622 22.7125 22.8934L22.5629 23.1179C21.2954 25.0187 21.8106 27.5964 23.7115 28.864C24.0783 29.1084 24.3823 29.4435 24.5912 29.8332C25.0553 30.6982 24.8647 31.3887 24.9091 32.1817C24.9091 32.519 25.141 32.812 25.4693 32.8895C25.7977 32.9671 26.1361 32.8086 26.2869 32.5069C26.3689 32.311 27.2554 30.8134 27.6407 28.4995L28.0823 29.1619C28.8611 30.3299 29.2728 31.6895 29.2728 33.0938C29.2728 34.9868 28.5355 36.7669 27.1971 38.1059Z" fill="#5A75A3"/>
</svg>
