<svg  viewBox="0 0 70 56" fill="none" xmlns="http://www.w3.org/2000/svg">
<path d="M68.8668 18.2162C68.0958 14.6093 66.5639 11.365 64.3186 8.58069L64.3014 8.55953C63.8344 7.97788 62.9847 7.88216 62.4002 8.34708C61.8141 8.81321 61.7168 9.66617 62.1828 10.2522L62.202 10.2756C64.1836 12.7332 65.5337 15.5955 66.215 18.783C66.9026 22.0002 66.8695 25.3916 66.1163 28.8625C64.695 35.4132 60.8347 41.5495 55.2468 46.141C49.6377 50.7501 42.9146 53.2883 36.316 53.2883C32.9105 53.2883 29.7213 52.6183 26.8368 51.2969C23.9905 49.9927 21.5688 48.118 19.6389 45.7245C17.7029 43.3233 16.3713 40.5352 15.6758 37.4362H18.4528C19.0796 39.8535 20.1842 42.0807 21.7498 44.0225C25.1576 48.249 30.3306 50.5766 36.316 50.5766C36.5865 50.5766 36.8572 50.5703 37.1282 50.5608C37.1941 50.5704 37.2598 50.5769 37.3247 50.5769C37.4349 50.5769 37.543 50.5627 37.6474 50.5369C43.1899 50.2205 48.7804 47.9448 53.5252 44.0459C58.6433 39.8402 62.1738 34.2438 63.4661 28.2875C63.4666 28.2852 63.467 28.2829 63.4674 28.2806C63.4685 28.2757 63.4695 28.2708 63.4704 28.2658C64.7995 22.1136 63.5997 16.3296 60.0908 11.9775C56.6875 7.75661 51.5236 5.42986 45.548 5.42375C45.542 5.42362 45.5361 5.42362 45.5301 5.42348C45.5283 5.42348 45.5266 5.42348 45.5247 5.42348C39.5523 5.42348 33.4406 7.74278 28.3154 11.9541C23.1973 16.1598 19.6668 21.7562 18.3744 27.7125C18.3739 27.7152 18.3734 27.7179 18.3728 27.7208C18.372 27.7248 18.3712 27.7289 18.3704 27.733C17.8499 30.1415 17.7186 32.4929 17.9601 34.7246H15.2411C15.0025 32.2658 15.1634 29.7239 15.7246 27.1376C17.1459 20.587 21.006 14.4508 26.5939 9.8591C32.203 5.25007 38.9261 2.71181 45.5247 2.71181C48.2012 2.71181 50.7627 3.13036 53.1376 3.95593C53.8449 4.20201 54.6175 3.82766 54.8634 3.12032C55.1092 2.41298 54.7353 1.64029 54.0279 1.39448C51.3659 0.469255 48.5051 0 45.5247 0C38.7196 0 31.8177 2.44688 25.9473 6.91477H9.08412C8.33529 6.91477 7.72828 7.52178 7.72828 8.27061C7.72828 9.01943 8.33529 9.62644 9.08412 9.62644H22.7758C17.8485 14.35 14.4389 20.2745 13.0746 26.5625C12.473 29.3348 12.2895 32.0683 12.5197 34.7245H7.4502C6.70137 34.7245 6.09436 35.3315 6.09436 36.0803C6.09436 36.8291 6.70137 37.4362 7.4502 37.4362H12.9049C12.9279 37.5521 12.9495 37.6683 12.9741 37.7838C13.7449 41.3906 15.2772 44.6348 17.5281 47.4266C19.7239 50.1498 22.4759 52.2815 25.7075 53.7622C28.9489 55.2471 32.5181 56 36.3161 56C43.541 56 50.8755 53.2428 56.9685 48.2361C63.0262 43.2585 67.216 36.5824 68.7664 29.4374C69.6015 25.5879 69.6354 21.8124 68.8668 18.2162ZM20.8215 29.3559H22.3464C23.0952 29.3559 23.7022 28.7489 23.7022 28.0001C23.7022 27.2512 23.0952 26.6442 22.3464 26.6442H21.4487C22.8628 21.8988 25.8668 17.4761 30.0371 14.0493C34.1884 10.638 39.0271 8.59912 43.8278 8.20634L43.6256 9.13861C43.4668 9.87036 43.9313 10.5923 44.663 10.7511C44.76 10.7721 44.8567 10.7822 44.9518 10.7822C45.5761 10.7822 46.1378 10.3484 46.2755 9.71349L46.6112 8.16593C51.2946 8.42436 55.3022 10.3583 57.9799 13.6796C60.7681 17.1376 61.8309 21.7078 61.0193 26.6442H59.4944C58.7457 26.6442 58.1386 27.2512 58.1386 28.0001C58.1386 28.7489 58.7457 29.3559 59.4944 29.3559H60.3921C58.978 34.1013 55.9741 38.5241 51.8037 41.9508C47.9495 45.1179 43.5029 47.1019 39.0442 47.6842L39.2227 46.8615C39.3815 46.1298 38.917 45.4078 38.1854 45.249C37.4535 45.0897 36.7314 45.5546 36.5728 46.2865L36.2304 47.864C31.1181 47.8422 26.7276 45.8761 23.8607 42.3206C22.6912 40.8701 21.8265 39.2231 21.275 37.4363H27.0584C27.8073 37.4363 28.4143 36.8293 28.4143 36.0804C28.4143 35.3316 27.8073 34.7246 27.0584 34.7246H20.6932C20.4769 33.013 20.5165 31.2106 20.8215 29.3559Z" fill="#FF742D"/>
<path d="M35.5185 33.7956C35.8214 33.7956 36.126 33.6946 36.3785 33.4873L41.7813 29.0477C42.0173 28.8539 42.1808 28.5861 42.2456 28.2877L44.9658 15.7501C45.1246 15.0183 44.6601 14.2964 43.9283 14.1376C43.1968 13.9787 42.4746 14.4433 42.3158 15.1751L39.6955 27.2519L34.657 31.3921C34.0784 31.8675 33.9948 32.7219 34.4703 33.3005C34.7382 33.6267 35.1268 33.7956 35.5185 33.7956Z" fill="#FF742D"/>
<path d="M1.35584 21.3019H10.6121C11.361 21.3019 11.968 20.6948 11.968 19.946C11.968 19.1972 11.361 18.5902 10.6121 18.5902H1.35584C0.607008 18.5902 0 19.1972 0 19.946C0 20.6948 0.607008 21.3019 1.35584 21.3019Z" fill="#FF742D"/>
<path d="M11.9815 47.0627H4.92395C4.17512 47.0627 3.56812 47.6697 3.56812 48.4186C3.56812 49.1674 4.17512 49.7744 4.92395 49.7744H11.9815C12.7303 49.7744 13.3373 49.1674 13.3373 48.4186C13.3373 47.6697 12.7303 47.0627 11.9815 47.0627Z" fill="#FF742D"/>
<path d="M2.60714 35.5617C2.1406 34.4417 0.493802 34.481 0.0801357 35.6234C-0.115783 36.1647 0.0664417 36.7965 0.521867 37.1491C0.963463 37.4911 1.5801 37.5281 2.05817 37.2394C2.62287 36.8983 2.86109 36.1709 2.60714 35.5617Z" fill="#FF742D"/>
<path d="M57.7817 6.01126C58.0655 6.69257 58.8694 7.02827 59.5525 6.74477C60.2354 6.4614 60.568 5.65698 60.286 4.97404C60.0041 4.29165 59.1974 3.95744 58.5152 4.24054C57.8312 4.52445 57.5013 5.32724 57.7817 6.01126Z" fill="#FF742D"/>
</svg>
