<svg width="209" height="209" viewBox="0 0 209 209" fill="none" xmlns="http://www.w3.org/2000/svg">
<path d="M24.4922 127.359C22.2389 127.359 20.4102 129.188 20.4102 131.441C20.4102 133.695 22.2389 135.523 24.4922 135.523C26.7455 135.523 28.5742 133.695 28.5742 131.441C28.5742 129.188 26.7455 127.359 24.4922 127.359Z" fill="#2B4775"/>
<path d="M24.4922 143.688C22.2377 143.688 20.4102 145.515 20.4102 147.77V164.098C20.4102 166.352 22.2377 168.18 24.4922 168.18C26.7467 168.18 28.5742 166.352 28.5742 164.098V147.77C28.5742 145.515 26.7467 143.688 24.4922 143.688Z" fill="#2B4775"/>
<path d="M206.958 143.421C203.405 136.846 195.078 133.924 187.588 136.627C187.522 136.651 187.455 136.677 187.39 136.704L146.833 153.773C146.909 153.139 146.953 152.498 146.953 151.852C146.953 142.848 139.628 135.523 130.625 135.523H104.19C103.489 135.523 102.797 135.343 102.186 134.998L80.6197 122.868C76.3556 120.465 71.5098 119.195 66.6065 119.195H48.2823C46.5972 114.444 42.06 111.031 36.7383 111.031H4.08203C1.82753 111.031 0 112.859 0 115.113V188.59C0 190.844 1.82753 192.672 4.08203 192.672H36.7383C41.1208 192.672 44.9934 190.4 47.1597 186.882C48.4411 187.425 49.6853 188.054 50.8805 188.771L72.2287 201.581C80.316 206.434 89.5765 209 99.0097 209C107.21 209 115.324 206.916 120.662 204.279L199.258 165.859C207.69 162.383 211.742 152.271 206.958 143.421ZM40.8203 180.426C40.8203 182.67 39.032 184.508 36.7383 184.508H8.16406V119.195H36.7383C38.9891 119.195 40.8203 121.027 40.8203 123.277V180.426ZM196.074 158.34C195.856 158.428 174.104 169.071 117.128 196.919C111.395 199.518 105.299 200.836 99.0097 200.836C91.0562 200.836 83.2485 198.673 76.4299 194.58L55.0813 181.771C53.1403 180.606 51.098 179.622 48.9844 178.822V127.359H66.6065C70.1085 127.359 73.5684 128.266 76.6148 129.982L98.1818 142.113C100.01 143.143 102.088 143.688 104.19 143.688H130.625C135.127 143.688 138.789 147.35 138.789 151.852C138.789 156.381 135.065 160.016 130.625 160.016H89.1271C82.3746 160.016 76.881 165.509 76.881 172.262C76.881 174.516 78.7085 176.344 80.963 176.344C83.2175 176.344 85.045 174.516 85.045 172.262C85.045 170.011 86.8762 168.18 89.1271 168.18H130.625C133.404 168.18 136.132 167.463 138.534 166.124L190.45 144.274C194.085 143.009 198.168 144.327 199.776 147.303C202.207 151.8 200.196 156.691 196.074 158.34Z" fill="#2B4775"/>
<path d="M174.005 39.7525L165.045 26.3103C164.047 24.8134 162.188 24.1464 160.466 24.6677C158.744 25.1886 157.566 26.7753 157.566 28.5742C157.566 34.2115 156.819 39.8516 155.371 45.3032C153.629 41.5828 150.837 38.2335 147.209 35.8157C140.286 31.199 138.409 21.8099 143.027 14.8851L148.717 6.34552C149.552 5.09274 149.63 3.48238 148.919 2.15531C148.209 0.828244 146.826 0 145.32 0C122.829 0 104.148 16.6208 100.913 38.2254C100.586 36.6415 100.418 35.0128 100.418 33.3584V20.4102C100.418 18.6112 99.2407 17.0245 97.5189 16.5032C95.7971 15.9816 93.9373 16.6486 92.9397 18.1459C89.9655 23.1039 75.9258 39.2761 75.9258 66.3493C75.9258 92.7878 97.4352 114.297 123.873 114.297H134.111C146.916 114.297 158.957 109.31 168.018 100.254C177.072 91.1954 182.059 79.1543 182.059 66.3493C182.059 56.85 179.273 47.6528 174.005 39.7525ZM128.992 106.133C122.24 106.133 116.746 100.639 116.746 93.8867C116.746 92.0053 117.16 90.2076 117.979 88.5286L128.993 69.4084L139.083 86.924C139.325 87.4951 141.238 89.7802 141.238 93.8867C141.238 100.639 135.745 106.133 128.992 106.133ZM162.244 94.4815C157.784 98.9399 152.452 102.21 146.634 104.132C148.39 101.118 149.402 97.6193 149.402 93.8867C149.402 89.79 148.209 86.0259 146.125 82.7967L132.529 59.1927C132.522 59.1792 132.512 59.167 132.504 59.1535C130.94 56.5035 127.03 56.459 125.455 59.1927L111.866 82.7824C109.738 86.0733 108.582 89.8696 108.582 93.8867C108.582 97.6095 109.589 101.099 111.337 104.107C95.524 98.8435 84.0898 83.9074 84.0898 66.3493C84.0898 55.1633 86.8979 44.1598 92.2686 34.3336C92.5119 42.5025 95.8085 50.1478 101.614 55.9528C102.781 57.1199 104.537 57.4689 106.062 56.8374C107.588 56.2055 108.582 54.7172 108.582 53.066V44.9019C108.582 27.4794 120.774 12.8502 137.073 9.09681L136.234 10.3565C129.119 21.0257 132.011 35.4937 142.68 42.6082C144.739 43.9802 146.446 45.8608 147.618 48.0484C150.223 52.9031 149.153 56.779 149.402 61.2301C149.402 63.1233 150.704 64.768 152.547 65.2027C154.39 65.6382 156.289 64.7488 157.136 63.0551C157.596 61.9558 162.571 53.5501 164.734 40.5627L167.213 44.2802C171.584 50.8364 173.895 58.4673 173.895 66.3493C173.895 76.9744 169.757 86.9656 162.244 94.4815Z" fill="#2B4775"/>
</svg>
