<svg width="61" height="62" viewBox="0 0 61 62" fill="none" xmlns="http://www.w3.org/2000/svg">
<path d="M60.9983 24.3122C60.974 23.6363 60.6634 22.3832 58.8566 21.586L10.6865 0.348669C8.21726 -0.740693 5.47702 0.808191 4.57822 3.80224L3.27423 8.14596C3.27423 8.14596 3.27411 8.1464 3.27399 8.14669L0.340385 17.9197C-0.558294 20.9139 0.719372 24.2362 3.18904 25.3261L17.2281 31.5146C16.9614 33.4821 17.4064 35.4261 18.375 36.9133L15.3843 46.8756C15.2467 47.3341 14.8835 47.6422 14.4807 47.6422H5.71876V44.1752C5.71876 42.2636 4.43609 40.7082 2.85938 40.7082H0.953127C0.426762 40.7082 0 41.2257 0 41.8639V60.3546C0 60.9928 0.426762 61.5103 0.953127 61.5103H2.85938C4.43609 61.5103 5.71876 59.9549 5.71876 58.0433V54.5762H14.4807C17.2791 54.5762 19.8018 52.4342 20.7581 49.2463L23.6859 39.4933C25.3614 39.2082 26.884 38.022 27.7878 36.1695L44.1939 43.4014C44.7301 43.638 45.2789 43.7502 45.8191 43.7502C47.4574 43.7501 49.0141 42.7175 49.8858 40.994L51.7685 41.8247C51.9811 41.9185 52.2016 41.9653 52.4214 41.9653C52.6958 41.9653 52.9692 41.8925 53.2252 41.7477C53.6864 41.487 54.0362 41.024 54.2102 40.4444L56.819 31.7535C57.1362 30.6965 56.7742 29.5381 56.0054 28.9817L59.0609 27.2542C60.8034 26.269 61.0226 24.9881 60.9983 24.3122ZM3.81251 58.0433C3.81251 58.6805 3.38491 59.1989 2.85938 59.1989H1.90625V43.0196H2.85938C3.38491 43.0196 3.81251 43.538 3.81251 44.1752V58.0433ZM18.9669 48.456C18.2834 50.7342 16.4805 52.2649 14.4807 52.2649H5.71876V49.9536H14.4807C15.6819 49.9536 16.7648 49.0344 17.1756 47.6662L19.9116 38.5518C20.2256 38.7804 20.5619 38.9767 20.9191 39.1343C21.1726 39.2463 21.4284 39.3349 21.6847 39.402L18.9669 48.456ZM23.0066 37.2438C22.9845 37.2437 22.9626 37.2437 22.9407 37.2453C22.4868 37.2526 22.0237 37.1622 21.571 36.9624C21.0412 36.7285 20.5792 36.3687 20.2007 35.9204C20.166 35.8693 20.1275 35.8219 20.0855 35.7784C19.3756 34.8617 18.9956 33.6172 19.0675 32.3254L25.9489 35.3588C25.2526 36.5182 24.1627 37.2006 23.0066 37.2438ZM55.0279 30.963L52.4208 39.653L50.6282 38.8619L53.1011 30.6239L53.6073 30.3377L55.0279 30.963ZM58.2555 25.1594L53.1602 28.0402C53.1596 28.0405 53.1591 28.0408 53.1586 28.0411L51.9384 28.731C51.9379 28.7313 51.9375 28.7315 51.9371 28.7317L50.5064 29.5406C48.8275 30.4898 45.9382 30.6426 44.197 29.8743L16.6267 17.728C16.1321 17.5103 15.5852 17.8198 15.4054 18.4196C15.2256 19.0195 15.4809 19.6824 15.9757 19.9006L43.5455 32.0465C44.5048 32.4699 45.6873 32.676 46.894 32.676C48.2132 32.676 49.5602 32.4283 50.675 31.9485L48.5112 39.1572C47.9719 40.9537 46.3278 41.8831 44.8459 41.2291L3.84062 23.1541C2.35899 22.5002 1.59244 20.5069 2.13167 18.7104L3.76247 13.2776C4.30635 14.2914 5.11519 15.1077 6.12265 15.5524L7.01859 15.9476C7.51278 16.166 8.06012 15.8566 8.24014 15.2568C8.42016 14.6571 8.16508 13.9939 7.67041 13.7757L6.77459 13.3804C5.29319 12.7266 4.52652 10.7337 5.06539 8.93731L5.3916 7.85055C5.3916 7.85055 5.39172 7.85026 5.39172 7.85011L6.36951 4.59272C6.90886 2.79623 8.55288 1.86635 10.0348 2.5206L58.2049 23.758C58.8169 24.028 59.0432 24.3094 59.0892 24.4132C59.0508 24.5215 58.8457 24.8256 58.2555 25.1594Z" fill="white"/>
<path d="M13.0436 16.1471L11.2521 15.3562C10.7575 15.1377 10.2105 15.4473 10.0304 16.0469C9.85037 16.6466 10.1053 17.3099 10.6 17.5283L12.3916 18.3191C12.4991 18.3666 12.6092 18.389 12.7175 18.389C13.1069 18.389 13.4723 18.0975 13.6132 17.6283C13.7934 17.0287 13.5383 16.3655 13.0436 16.1471Z" fill="white"/>
</svg>
