<svg width="55" height="55" viewBox="0 0 55 55" fill="none" xmlns="http://www.w3.org/2000/svg">
<g clip-path="url(#clip0)">
<path d="M46.7494 35.75V2.75C46.7494 1.23122 45.5182 0 43.9994 0H12.8327C11.3139 0 10.0827 1.23122 10.0827 2.75V11.1008C8.40521 12.0175 8.19437 12.7967 4.35354 18.1683C3.08789 19.7504 3.34439 22.0589 4.92646 23.3246C6.50852 24.5902 8.81705 24.3337 10.0827 22.7517V41.7633L1.42937 48.4275C0.391219 49.2266 -0.141769 50.5188 0.0311811 51.8174C0.204131 53.116 1.05674 54.2237 2.26785 54.7233C3.47895 55.2228 4.86455 55.0382 5.90271 54.2392L10.0827 51.0217V52.25C10.0827 53.7688 11.3139 55 12.8327 55H51.9835C53.0694 54.9863 54.0678 54.4018 54.6113 53.4615C55.1547 52.5213 55.1628 51.3644 54.6327 50.4167L46.7494 35.75ZM44.916 2.75V34.0633C44.3201 33.8706 43.6786 33.8706 43.0827 34.0633C43.0827 0.146667 43.156 2.52083 42.9177 1.83333H43.9994C44.5056 1.83333 44.916 2.24374 44.916 2.75ZM11.916 2.75C11.916 2.24374 12.3264 1.83333 12.8327 1.83333H40.3327C40.839 1.83333 41.2494 2.24374 41.2494 2.75V35.75L33.366 50.4167C32.9065 51.2691 32.8759 52.2883 33.2835 53.1667H29.7544C30.066 52.6442 29.7544 53.2675 33.7327 41.4975C34.2734 39.877 33.6233 38.0977 32.1652 37.2075L27.3344 34.2375C26.9869 34.0311 26.8156 33.6215 26.9127 33.2292L28.746 25.5017L36.5377 23.7508C37.8182 23.4659 38.8494 22.5195 39.2429 21.2681C39.6364 20.0167 39.3324 18.6504 38.4454 17.6839C37.5584 16.7174 36.2232 16.2976 34.9427 16.5825L29.4977 17.82C29.1963 16.8752 28.7102 15.9996 28.0677 15.2442C30.38 14.4478 31.9709 12.3193 32.0799 9.87616C32.1889 7.43298 30.7939 5.17129 28.5617 4.17216C26.3295 3.17303 23.7134 3.63939 21.964 5.34831C20.2145 7.05724 19.687 9.66166 20.6335 11.9167L15.1335 10.4775C14.086 10.1734 12.9778 10.145 11.916 10.395V2.75ZM21.9994 9.625C21.9994 7.34683 23.8462 5.5 26.1244 5.5C28.4025 5.5 30.2494 7.34683 30.2494 9.625C30.2494 11.9032 28.4025 13.75 26.1244 13.75C23.8483 13.745 22.0044 11.9011 21.9994 9.625ZM29.8369 19.6258L35.3369 18.3792C35.9882 18.2024 36.684 18.3978 37.1481 18.8878C37.6122 19.3778 37.7695 20.0832 37.5577 20.724C37.3459 21.3648 36.7991 21.8373 36.1344 21.9542L29.2227 23.5125C29.6372 22.2589 29.8446 20.9461 29.8369 19.6258ZM11.916 20.24L13.3094 18.3333C13.5197 18.0464 13.877 17.907 14.226 17.9758L16.976 18.8375L12.4935 39.71C12.3744 40.04 12.191 40.1408 11.916 40.3517V20.24ZM4.78437 52.7908C4.26366 53.1904 3.56935 53.2818 2.96297 53.0306C2.3566 52.7794 1.9303 52.2238 1.84464 51.5731C1.75899 50.9224 2.02699 50.2754 2.54771 49.8758L13.2819 41.6258C13.7644 41.2594 14.1125 40.7438 14.2719 40.1592L18.7544 19.25C18.9683 18.3083 18.415 17.362 17.4894 17.0867L14.7394 16.225C13.6443 15.9351 12.4836 16.3463 11.8152 17.2608L8.79937 21.4042C8.20372 22.2205 7.05984 22.4009 6.24187 21.8075C5.4286 21.209 5.25238 20.0656 5.84771 19.25L9.51437 14.0342C10.6594 12.3807 12.7487 11.667 14.666 12.2742L22.4944 14.3092C23.4186 15.0405 24.5376 15.4836 25.7119 15.5833C26.8289 16.3814 27.6071 17.5683 27.8935 18.9108C28.2235 20.3775 28.2235 19.7633 25.1435 32.8258C24.8647 33.9849 25.3644 35.1916 26.381 35.8142L31.166 38.7658C31.8968 39.2096 32.2239 40.0995 31.9544 40.9108L28.2877 51.9108C27.9688 52.8727 26.9304 53.3939 25.9685 53.075C25.0066 52.7561 24.4854 51.7177 24.8044 50.7558L27.5544 42.5058C27.8471 41.6972 27.5383 40.7937 26.8119 40.3333L21.431 37.015C20.9425 36.7032 20.3353 36.6408 19.7935 36.8467C19.2518 37.0525 18.8392 37.5024 18.681 38.06C17.2144 43.0467 17.2785 43.1017 16.6644 43.56L4.78437 52.7908ZM11.916 52.25V49.6192L17.8285 45.0358C18.4301 44.5707 18.8722 43.93 19.0935 43.2025L20.4777 38.6192L25.8494 41.9283L23.0994 50.1783C22.7772 51.1758 22.8973 52.2635 23.4294 53.1667H12.8327C12.3264 53.1667 11.916 52.7563 11.916 52.25ZM51.9835 53.1667H36.0152C35.5905 53.142 35.2076 52.9025 34.9997 52.5312C34.7918 52.16 34.7876 51.7084 34.9885 51.3333L42.9727 36.4008C43.1661 36.0107 43.5639 35.7638 43.9994 35.7638C44.4348 35.7638 44.8327 36.0107 45.026 36.4008L53.0102 51.3333C53.2112 51.7084 53.2069 52.16 52.9991 52.5312C52.7912 52.9025 52.4083 53.142 51.9835 53.1667Z" fill="white"/>
<path d="M43.9987 51.3333C44.5049 51.3333 44.9153 50.9229 44.9153 50.4167C44.9153 49.9104 44.5049 49.5 43.9987 49.5C43.4924 49.5 43.082 49.9104 43.082 50.4167C43.082 50.9229 43.4924 51.3333 43.9987 51.3333Z" fill="white"/>
<path d="M43.9987 39.4167C43.4924 39.4167 43.082 39.8271 43.082 40.3334V46.75C43.082 47.2563 43.4924 47.6667 43.9987 47.6667C44.5049 47.6667 44.9153 47.2563 44.9153 46.75V40.3334C44.9153 39.8271 44.5049 39.4167 43.9987 39.4167Z" fill="white"/>
</g>
<defs>
<clipPath id="clip0">
<rect width="55" height="55" fill="white"/>
</clipPath>
</defs>
</svg>
