<svg width="55" height="55" viewBox="0 0 55 55" fill="none" xmlns="http://www.w3.org/2000/svg">
<g clip-path="url(#clip0)">
<path d="M22.34 20.13C22.0363 19.6204 21.3768 19.4537 20.8673 19.7573C18.5807 21.1202 16.7748 23.1819 15.7823 25.5623C15.5539 26.11 15.8128 26.7389 16.3603 26.9672C16.4954 27.0235 16.6355 27.0503 16.7733 27.0503C17.194 27.0503 17.5933 26.8017 17.7653 26.3893C18.5817 24.4312 20.0741 22.7313 21.9674 21.6028C22.4769 21.2989 22.6437 20.6396 22.34 20.13Z" fill="white"/>
<path d="M25.6387 19.1156C25.4982 18.5395 24.9179 18.186 24.342 18.3258L24.3104 18.3337C23.7335 18.4726 23.3785 19.0527 23.5174 19.6295C23.6359 20.1218 24.0759 20.4526 24.5609 20.4526C24.6441 20.4526 24.7288 20.4429 24.8132 20.4226L24.8493 20.4136C25.4253 20.2728 25.7791 19.6917 25.6387 19.1156Z" fill="white"/>
<path d="M44.0559 46.1173V30.7361C44.0559 26.3308 42.329 22.178 39.1934 19.0424C36.0579 15.9068 31.9048 14.1799 27.4997 14.1799C23.0946 14.1799 18.9416 15.9067 15.8061 19.0424C12.6705 22.178 10.9437 26.3309 10.9437 30.7361V46.1173C9.4665 46.4657 8.36328 47.794 8.36328 49.3762V53.9258C8.36328 54.5191 8.84421 55.0001 9.4375 55.0001H45.5619C46.1552 55.0001 46.6361 54.5191 46.6361 53.9258V49.3762C46.6362 47.7942 45.533 46.4658 44.0559 46.1173ZM13.0921 30.7361C13.0921 22.7916 19.5554 16.3284 27.4998 16.3284C35.4442 16.3284 41.9074 22.7916 41.9074 30.7361V46.0273H28.5739V37.4401C31.568 36.928 33.8546 34.3158 33.8546 31.178C33.8546 27.6739 31.0038 24.8232 27.4998 24.8232C23.9957 24.8232 21.1451 27.6739 21.1451 31.178C21.1451 34.3157 23.4315 36.9278 26.4255 37.4401V46.0273H13.0921V30.7361ZM27.4998 35.3842C25.1805 35.3842 23.2935 33.4974 23.2935 31.178C23.2935 28.8586 25.1805 26.9716 27.4998 26.9716C29.8192 26.9716 31.7061 28.8586 31.7061 31.178C31.7061 33.4972 29.8192 35.3842 27.4998 35.3842ZM44.4878 52.8517H10.5117V49.3763C10.5117 48.7144 11.0503 48.1758 11.7123 48.1758H12.0179H42.9816H43.2871C43.9492 48.1758 44.4878 48.7144 44.4878 49.3763V52.8517Z" fill="white"/>
<path d="M27.5 0C26.9067 0 26.4258 0.480927 26.4258 1.07422V7.88421C26.4258 8.4774 26.9067 8.95843 27.5 8.95843C28.0933 8.95843 28.5742 8.4774 28.5742 7.88421V1.07422C28.5742 0.480927 28.0933 0 27.5 0Z" fill="white"/>
<path d="M11.8165 13.5796L6.75619 8.76435C6.32639 8.35529 5.64641 8.37216 5.23746 8.80206C4.8284 9.23185 4.84537 9.91183 5.27516 10.3208L10.3355 15.1361C10.5433 15.3338 10.8097 15.432 11.0758 15.432C11.3597 15.432 11.643 15.3202 11.8542 15.0984C12.2633 14.6686 12.2463 13.9886 11.8165 13.5796Z" fill="white"/>
<path d="M49.7624 8.80186C49.3534 8.37206 48.6734 8.3552 48.2436 8.76415L43.1833 13.5795C42.7535 13.9885 42.7367 14.6685 43.1456 15.0983C43.3567 15.3201 43.6401 15.4319 43.924 15.4319C44.19 15.4319 44.4565 15.3337 44.6643 15.1359L49.7248 10.3206C50.1545 9.91174 50.1714 9.23165 49.7624 8.80186Z" fill="white"/>
</g>
<defs>
<clipPath id="clip0">
<rect width="55" height="55" fill="white"/>
</clipPath>
</defs>
</svg>
