<svg width="55" height="55" viewBox="0 0 55 55" fill="none" xmlns="http://www.w3.org/2000/svg">
<path d="M54.7006 11.8589C54.6956 11.7788 54.68 11.6991 54.6536 11.6235C54.6437 11.594 54.6361 11.5658 54.6236 11.5371C54.5788 11.4373 54.5166 11.3464 54.4401 11.2686L43.4401 0.268555C43.3622 0.191569 43.2709 0.129354 43.1706 0.0850424C43.1433 0.0725097 43.1156 0.0649007 43.0874 0.0550537C43.0095 0.0281983 42.9289 0.012085 42.847 0.00716146C42.8313 0.0102946 42.8148 0 42.7955 0H15.2955C12.7657 0.00313314 10.7153 2.0531 10.7122 4.58333V11.3299C4.41056 14.109 0.34375 20.3466 0.34375 27.2341C0.34375 34.1217 4.41056 40.3593 10.7122 43.1384V50.4167C10.7153 52.9469 12.7657 54.9969 15.2955 55H50.1289C52.6591 54.9969 54.7095 52.9469 54.7122 50.4167V11.9167C54.7122 11.8965 54.7024 11.8791 54.7006 11.8589ZM51.5826 11H44.6289C44.1226 11 43.7122 10.5896 43.7122 10.0833V3.12956L51.5826 11ZM2.19633 27.2341C2.19096 23.0993 3.83093 19.1327 6.7546 16.2091C9.67826 13.2854 13.6453 11.6454 17.7797 11.6508C18.3007 11.6508 18.8176 11.6763 19.3279 11.726C26.4159 12.4265 32.1205 17.8558 33.1705 24.9004C33.2923 25.6725 33.3563 26.4526 33.3621 27.2341C33.3688 30.1699 32.539 33.0466 30.9706 35.528C29.7268 37.5108 28.0505 39.1866 26.0673 40.4296C21.2651 43.4454 15.2038 43.6146 10.2409 40.8709C5.278 38.1276 2.19722 32.9047 2.19633 27.2341ZM28.4261 41.0043C28.5514 40.9071 28.6754 40.8109 28.798 40.7111C29.2505 40.3468 29.6838 39.9596 30.0969 39.5514C30.5051 39.1383 30.8923 38.7054 31.2566 38.2534C31.3564 38.1307 31.4527 38.0059 31.5498 37.8805C31.6608 37.7355 31.7812 37.5981 31.8873 37.4504L39.7018 45.2743C40.2192 45.7868 40.5106 46.485 40.5106 47.2133C40.5106 47.9419 40.2192 48.6397 39.7018 49.1527C38.6195 50.1987 36.903 50.1987 35.8207 49.1527L27.9959 41.3418C28.1436 41.2343 28.2819 41.1153 28.4261 41.0043ZM50.1289 53.1667H15.2955C13.7769 53.1667 12.5455 51.9353 12.5455 50.4167V43.8541C12.6024 43.8724 12.6619 43.8845 12.7196 43.902C12.8665 43.9467 13.0151 43.9825 13.1637 44.0237C13.5065 44.1155 13.8521 44.2072 14.2012 44.2757C14.3726 44.3115 14.544 44.3446 14.7172 44.3751C15.0664 44.4364 15.4186 44.4847 15.7722 44.5255C15.9302 44.5434 16.086 44.5658 16.2444 44.5792C16.7524 44.6226 17.2636 44.6508 17.7797 44.6508C20.8099 44.653 23.7872 43.8599 26.4141 42.3502L34.5191 50.4471C35.6565 51.6919 37.3859 52.212 39.021 51.8002C40.6565 51.3888 41.9339 50.1128 42.3466 48.4777C42.7597 46.8427 42.2414 45.1127 40.9971 43.9745L32.8957 35.8682C34.4054 33.2413 35.199 30.2639 35.1963 27.2341C35.1963 26.6536 35.1686 26.0776 35.1122 25.5064C34.721 21.5014 32.9481 17.7577 30.0978 14.9178C26.838 11.6405 22.4024 9.80404 17.7797 9.81746C17.2636 9.81746 16.7524 9.84611 16.2444 9.88908C16.086 9.90295 15.9289 9.92489 15.7713 9.94324C15.4186 9.98263 15.0682 10.0328 14.719 10.0936C14.5449 10.1241 14.3713 10.1572 14.1985 10.1934C13.8538 10.2651 13.5119 10.3492 13.1726 10.4427C13.0204 10.4839 12.8682 10.5206 12.7143 10.5663C12.6574 10.5837 12.5997 10.5958 12.5428 10.6142V4.58333C12.5428 3.06466 13.7742 1.83333 15.2928 1.83333H41.8789V10.0833C41.8789 11.602 43.1102 12.8333 44.6289 12.8333H52.8789V50.4167C52.8789 51.9353 51.648 53.1667 50.1289 53.1667Z" fill="white"/>
<path d="M48.2956 22H37.2956C36.7893 22 36.3789 22.4104 36.3789 22.9167C36.3789 23.4229 36.7893 23.8333 37.2956 23.8333H48.2956C48.8018 23.8333 49.2122 23.4229 49.2122 22.9167C49.2122 22.4104 48.8018 22 48.2956 22Z" fill="white"/>
<path d="M48.2956 27.5H37.2956C36.7893 27.5 36.3789 27.9104 36.3789 28.4167C36.3789 28.9229 36.7893 29.3333 37.2956 29.3333H48.2956C48.8018 29.3333 49.2122 28.9229 49.2122 28.4167C49.2122 27.9104 48.8018 27.5 48.2956 27.5Z" fill="white"/>
<path d="M49.2119 33.9167C49.2119 33.4104 48.8015 33 48.2952 33H36.3786C35.8724 33 35.4619 33.4104 35.4619 33.9167C35.4619 34.4229 35.8724 34.8333 36.3786 34.8333H48.2952C48.8015 34.8333 49.2119 34.4229 49.2119 33.9167Z" fill="white"/>
<path d="M49.2122 17.4167C49.2122 16.9104 48.8018 16.5 48.2956 16.5H34.5456C34.0393 16.5 33.6289 16.9104 33.6289 17.4167C33.6289 17.9229 34.0393 18.3333 34.5456 18.3333H48.2956C48.8018 18.3333 49.2122 17.9229 49.2122 17.4167Z" fill="white"/>
<path d="M24.3042 39.3249C26.5399 38.1343 28.3938 36.3359 29.652 34.1378C29.7245 34.0111 29.8033 33.8885 29.8713 33.76C29.9067 33.6938 29.9344 33.6253 29.9684 33.559C30.1076 33.2914 30.2433 33.0237 30.3632 32.7498C30.4836 32.4759 30.5781 32.2154 30.6761 31.9459C30.7043 31.868 30.7401 31.792 30.7678 31.7132C33.0989 24.9344 29.8315 17.5017 23.2608 14.6367C16.6897 11.7717 9.02026 14.4357 5.64005 20.757C4.57613 22.7484 4.02201 24.9725 4.02738 27.2306C4.01888 32.0753 6.56344 36.566 10.7238 39.0483C14.8842 41.5311 20.0444 41.6381 24.3042 39.3303V39.3249ZM12.0666 37.6917C11.0689 37.1478 10.1549 36.463 9.35238 35.6583C8.79557 35.1019 8.29472 34.4927 7.85653 33.8388C7.63989 33.5147 7.44071 33.1822 7.25765 32.8407C4.4987 27.6312 5.96053 21.1872 10.6974 17.6785C15.4342 14.1698 22.0246 14.6497 26.2037 18.8073C29.9049 22.5434 30.7374 28.2564 28.2568 32.8935V32.9011C27.1638 34.9461 25.488 36.6206 23.4426 37.7127C19.894 39.6405 15.6093 39.6338 12.0666 37.6952V37.6917Z" fill="white"/>
<path d="M24.7859 23.9929L23.4351 21.9664C23.2847 21.7407 23.0044 21.6402 22.7448 21.7188C22.4852 21.7973 22.3077 22.0365 22.3077 22.3077C22.3077 23.1575 22.1951 24.0078 21.9768 24.8297C21.7141 24.2688 21.2932 23.7639 20.7463 23.3994C19.7026 22.7034 19.4196 21.2879 20.1158 20.244L20.9737 18.9566C21.0995 18.7678 21.1112 18.525 21.0041 18.3249C20.897 18.1249 20.6885 18 20.4615 18C17.0709 18 14.2546 20.5057 13.767 23.7626C13.7177 23.5239 13.6923 23.2783 13.6923 23.0289V21.0769C13.6923 20.8057 13.5148 20.5665 13.2553 20.4879C12.9957 20.4093 12.7153 20.5098 12.5649 20.7356C12.1166 21.483 10 23.921 10 28.0025C10 31.9882 13.2426 35.2308 17.2283 35.2308H18.7717C20.7021 35.2308 22.5174 34.479 23.8833 33.1138C25.2483 31.7481 26 29.9329 26 28.0025C26 26.5704 25.5801 25.1839 24.7859 23.9929ZM18 34C16.982 34 16.1538 33.1718 16.1538 32.1538C16.1538 31.8702 16.2163 31.5992 16.3398 31.3461L18.0001 28.4636L19.5212 31.1042C19.5578 31.1903 19.8462 31.5348 19.8462 32.1538C19.8462 33.1718 19.018 34 18 34ZM23.0129 32.2435C22.3405 32.9156 21.5367 33.4086 20.6595 33.6983C20.9244 33.244 21.0769 32.7166 21.0769 32.1538C21.0769 31.5362 20.897 30.9688 20.5828 30.482L18.5332 26.9236C18.5321 26.9215 18.5306 26.9197 18.5294 26.9177C18.2936 26.5182 17.7042 26.5114 17.4668 26.9236L15.4181 30.4798C15.0974 30.9759 14.9231 31.5482 14.9231 32.1538C14.9231 32.7151 15.0748 33.2412 15.3383 33.6946C12.9545 32.9011 11.2308 30.6494 11.2308 28.0025C11.2308 26.3161 11.6541 24.6573 12.4638 23.1759C12.5004 24.4074 12.9974 25.56 13.8726 26.4351C14.0486 26.6111 14.3133 26.6637 14.5432 26.5685C14.7732 26.4732 14.9231 26.2489 14.9231 25.9999V24.7692C14.9231 22.1426 16.761 19.9372 19.2182 19.3714L19.0917 19.5613C18.0191 21.1697 18.4551 23.3508 20.0636 24.4234C20.3739 24.6302 20.6312 24.9137 20.8079 25.2435C21.2006 25.9754 21.0393 26.5597 21.0769 27.2307C21.0769 27.5161 21.2732 27.7641 21.551 27.8296C21.8288 27.8953 22.1151 27.7612 22.2428 27.5058C22.3121 27.3401 23.0622 26.0729 23.3883 24.115L23.7619 24.6754C24.4209 25.6638 24.7692 26.8142 24.7692 28.0025C24.7692 29.6042 24.1454 31.1105 23.0129 32.2435Z" fill="white"/>
</svg>
