<svg width="48" height="77" viewBox="0 0 48 77" fill="none" xmlns="http://www.w3.org/2000/svg">
<path d="M42.2055 28.8137H39.3016L39.9033 26.6332C40.0654 26.0453 39.8039 25.4093 39.3193 25.2127C38.834 25.0153 38.3097 25.3332 38.1477 25.9208L37.3494 28.8135H31.4061C31.6489 27.9341 33.7408 20.3523 34.1373 18.9155C35.7211 20.1521 37.5868 20.8237 39.5684 20.7718L39.1549 22.2707C38.9927 22.8587 39.2542 23.4947 39.7389 23.6913C40.224 23.8882 40.7483 23.571 40.9105 22.9832L41.615 20.4294C47.9286 18.4731 50.063 9.55267 45.7226 3.73953C45.247 3.10265 44.3823 3.32517 44.1585 4.13653L42.0004 11.9586L38.8115 12.7454L36.6551 9.7906L38.9486 1.47844C39.0469 1.12244 38.992 0.730677 38.802 0.434086C38.6122 0.137795 38.3123 -0.0236683 38.004 0.00281831C30.5711 0.653611 27.3083 10.9999 32.5989 17.4156L30.8938 23.5952C18.2231 23.9659 19.8689 29.9767 11.7992 31.2265C11.571 29.852 10.5678 28.8138 9.36812 28.8138H2.48016C1.11259 28.8138 0 30.1628 0 31.821V51.6623C0 53.3205 1.11259 54.6696 2.48016 54.6696H9.36812C10.6314 54.6696 11.675 53.5176 11.8272 52.035C16.0744 52.3769 16.4366 54.1151 22.3412 54.5925L21.9665 55.9503C18.7261 56.5021 16.0131 59.0991 15.0029 62.7604C14.0562 66.1918 14.771 70.0685 16.8683 72.8774C17.3426 73.5128 18.2081 73.2932 18.4324 72.4804L20.5907 64.658L23.7793 63.8713L25.9356 66.8265L23.6421 75.1382C23.4339 75.8927 23.9239 76.6704 24.5866 76.6138C31.56 76.0037 35.0264 66.7406 30.6628 60.1225L32.1826 54.6149H37.0345C38.8839 54.6149 40.3885 52.7905 40.3885 50.5478C40.3885 49.7912 40.2171 49.0821 39.9192 48.4747C41.8864 47.5916 42.7099 44.7606 41.6429 42.5855C43.6102 41.7026 44.4336 38.8716 43.3667 36.6964C44.6456 36.1223 45.5597 34.6286 45.5597 32.8806C45.5597 30.6383 44.055 28.8137 42.2055 28.8137ZM36.703 2.54104L34.7298 9.69273C34.6248 10.073 34.6952 10.4923 34.9143 10.7927L37.7789 14.7183C37.9981 15.0185 38.3328 15.1539 38.6568 15.0745L42.893 14.0292C43.2171 13.9493 43.4815 13.6657 43.5862 13.2855L45.3405 6.9278C46.2127 8.85893 46.4035 11.0745 45.8323 13.1444C43.9245 20.0581 35.5653 20.3058 32.663 13.8059C30.6261 9.24425 32.58 3.92673 36.703 2.54104ZM30.4173 69.0126C29.7331 71.492 28.0262 73.3565 25.8878 74.0753L27.861 66.9237C27.966 66.5435 27.8955 66.1242 27.6765 65.8237L24.8119 61.8979C24.5882 61.5915 24.2508 61.4633 23.934 61.5417L19.6979 62.5868C19.3738 62.6667 19.1096 62.9503 19.0047 63.3305L17.2504 69.6884C14.3246 63.2087 19.6027 56.0955 25.7044 58.5709C29.4514 60.0923 31.5894 64.7636 30.4173 69.0126ZM23.9406 55.8707L24.2713 54.6719C24.2713 54.6719 25.0459 54.6148 30.2304 54.6148L29.1997 58.3502C27.6594 56.8687 25.7965 56.0343 23.9406 55.8707ZM42.2056 34.7028C40.8841 34.7028 32.4181 34.7028 31.0846 34.7028C30.5733 34.7028 30.1589 35.2052 30.1589 35.8253C30.1589 36.4454 30.5732 36.9478 31.0846 36.9478H40.4821C41.3107 36.9478 41.9848 37.765 41.9848 38.7697C41.9848 39.7747 41.3107 40.5921 40.4821 40.5921C36.9338 40.5921 34.6161 40.5921 31.0846 40.5921C30.5733 40.5921 30.1589 41.0945 30.1589 41.7146C30.1589 42.3346 30.5732 42.8371 31.0846 42.8371H38.7582C39.5868 42.8371 40.2611 43.6543 40.2611 44.659C40.2611 45.664 39.587 46.4815 38.7582 46.4815C37.9665 46.4815 31.8706 46.4815 31.0846 46.4815C30.5733 46.4815 30.1589 46.9838 30.1589 47.6039C30.1589 48.2237 30.5732 48.7264 31.0846 48.7264H37.0346C37.8632 48.7264 38.5373 49.5436 38.5373 50.5483C38.5373 51.553 37.8632 52.3706 37.0346 52.3706C36.9745 52.3706 25.7898 52.3684 25.7298 52.3741C25.6782 52.3788 20.499 52.8463 16.1855 50.7741C16.0223 50.6964 14.1669 49.9551 11.848 49.7873V38.3665C11.848 37.7466 11.4336 37.2441 10.9223 37.2441C10.411 37.2441 9.99655 37.7464 9.99655 38.3665V51.6628C9.99655 52.0831 9.71455 52.4251 9.36787 52.4251H2.48016C2.13349 52.4251 1.85148 52.0831 1.85148 51.6628V31.8207C1.85148 31.4004 2.13349 31.0585 2.48016 31.0585H9.36812C9.71479 31.0585 9.9968 31.4004 9.9968 31.8207V34.9237C9.9968 35.5437 10.4112 36.0462 10.9225 36.0462C11.4339 36.0462 11.8483 35.5438 11.8483 34.9237V33.4834C20.5674 32.2815 18.8521 26.3995 30.2678 25.8642L29.2425 29.5798C29.148 29.9222 29.1951 30.2987 29.369 30.5919C29.5429 30.8849 29.8225 31.0585 30.1204 31.0585C36.2426 31.0585 36.0457 31.0585 42.2057 31.0585C43.0345 31.0585 43.7085 31.8758 43.7085 32.8806C43.7084 33.8855 43.0343 34.7028 42.2056 34.7028Z" fill="white"/>
</svg>
