<svg width="55" height="63" viewBox="0 0 55 63" fill="none" xmlns="http://www.w3.org/2000/svg">
<path d="M27.5003 28.3457H12.8337C12.3277 28.3457 11.917 28.7992 11.917 29.358V49.6039C11.917 50.1627 12.3277 50.6162 12.8337 50.6162H27.5003C28.0063 50.6162 28.417 50.1627 28.417 49.6039V29.358C28.417 28.7992 28.0063 28.3457 27.5003 28.3457ZM26.5837 48.5916H13.7503V30.3703H26.5837V48.5916Z" fill="white"/>
<path d="M52.8302 33.1589C54.1695 32.0282 55 30.2526 55 28.3454C55 25.3409 53.0145 22.8394 50.4167 22.3556C50.4167 22.3282 50.4167 22.2999 50.4167 22.2715C50.4167 21.6945 50.3387 21.1236 50.1838 20.5638C52.0007 19.5393 53.1667 17.4924 53.1667 15.1854C53.1667 12.1393 51.1253 9.60956 48.4743 9.17629C48.5457 8.82198 48.5833 8.46059 48.5833 8.09919C48.5833 5.30826 46.5273 3.03765 44 3.03765H34.8333V1.01303C34.8333 0.639484 34.6473 0.296311 34.3493 0.120169C34.0514 -0.056985 33.6893 -0.0367389 33.4088 0.170785L28.1389 4.04996H23.8333V3.03765C23.8333 2.47885 23.4227 2.02534 22.9167 2.02534H17.4167C16.9107 2.02534 16.5 2.47885 16.5 3.03765V4.04996H8.25C3.7015 4.04996 0 8.13766 0 13.1607V44.5423C0 46.2167 1.23383 47.5793 2.75 47.5793C4.26617 47.5793 5.5 46.2167 5.5 44.5423V39.4808H8.25V61.7516C8.25 62.3104 8.66067 62.7639 9.16667 62.7639H31.1667C31.6727 62.7639 32.0833 62.3104 32.0833 61.7516V22.2715C32.0833 19.268 30.0969 16.7737 27.5 16.2888V13.1607C27.5 12.6019 27.0893 12.1484 26.5833 12.1484H23.8333V10.1238H28.1389L33.4079 14.003C33.5619 14.1164 33.7388 14.1731 33.9167 14.1731C34.0652 14.1731 34.2137 14.1336 34.3493 14.0536C34.6473 13.8775 34.8333 13.5343 34.8333 13.1607V9.1115H37.4458C38.1663 9.1115 38.8511 9.40204 39.4286 9.9416C37.7538 11.0055 36.6667 12.9947 36.6667 15.1854C36.6667 17.4924 37.8327 19.5393 39.6495 20.5638C39.4946 21.1236 39.4167 21.6945 39.4167 22.2715C39.4167 22.6653 39.4552 23.0581 39.5331 23.459C37.7483 24.7648 36.6667 26.9565 36.6667 29.3577C36.6667 31.4167 37.4568 33.3219 38.8254 34.6531C38.0261 35.7271 37.5833 37.0654 37.5833 38.4685C37.5833 40.4111 38.4441 42.2535 39.886 43.3964L40.9548 41.7514C39.9914 40.9881 39.4167 39.7612 39.4167 38.4685C39.4167 37.2547 39.9208 36.1098 40.8008 35.3293C41.0327 35.1228 41.1602 34.8039 41.1409 34.4749C41.1217 34.1459 40.9585 33.8483 40.7037 33.6762C39.3232 32.7469 38.5 31.1313 38.5 29.3577C38.5 27.4404 39.4662 25.7103 41.0218 24.8428C41.4324 24.613 41.6258 24.0836 41.4737 23.6037C41.3233 23.131 41.25 22.6947 41.25 22.2715C41.25 21.6621 41.3866 21.0527 41.657 20.4615C41.7789 20.1953 41.7881 19.8825 41.6818 19.6071C41.5754 19.3328 41.3646 19.1232 41.1061 19.0372C39.5477 18.5138 38.5 16.965 38.5 15.1854C38.5 13.3875 39.6055 11.7911 41.1886 11.3052C41.47 11.2191 41.6918 10.9792 41.7954 10.6765C41.8981 10.3749 41.8587 10.0266 41.6992 9.75634C40.7092 8.08502 39.1187 7.08688 37.4458 7.08688H34.8333V5.06227H44C45.5162 5.06227 46.75 6.42483 46.75 8.09919C46.75 8.64382 46.6134 9.16819 46.3448 9.66018C46.1633 9.9912 46.1688 10.4073 46.3586 10.7322C46.5483 11.0572 46.8848 11.2363 47.2367 11.1898L47.3963 11.1675C47.4852 11.1523 47.5741 11.1361 47.6667 11.1361C49.6888 11.1361 51.3333 12.9522 51.3333 15.1854C51.3333 16.965 50.2856 18.5138 48.7273 19.0372C48.4678 19.1243 48.257 19.3328 48.1516 19.6071C48.0452 19.8815 48.0544 20.1953 48.1763 20.4615C48.4468 21.0527 48.5833 21.6621 48.5833 22.2715C48.5833 22.5479 48.5586 22.8232 48.5082 23.0895C48.4523 23.3901 48.5228 23.7019 48.6988 23.9388C48.873 24.1716 49.1324 24.3063 49.4056 24.3063C49.4624 24.3022 49.5339 24.2992 49.5 24.2961C51.5222 24.2961 53.1667 26.1122 53.1667 28.3454C53.1667 30.0147 52.2069 31.5332 50.7797 32.1243C50.4396 32.2651 50.2068 32.6133 50.1866 33.0121C50.1655 33.412 50.3589 33.7886 50.6816 33.9718C52.2133 34.8454 53.1667 36.5694 53.1667 38.4685C53.1667 40.9446 51.4947 43.0927 49.2763 43.4652L49.5522 45.4676C52.6579 44.9452 55 41.9367 55 38.4685C55 36.4013 54.1961 34.485 52.8302 33.1589ZM13.75 12.1484C13.244 12.1484 12.8333 12.6019 12.8333 13.1607V16.2888C10.2364 16.7727 8.25 19.267 8.25 22.2715V33.4069H5.5V13.1607C5.5 11.4864 6.73383 10.1238 8.25 10.1238H16.5V12.1484H13.75ZM10.0833 26.3208H30.25V52.6408H10.0833V26.3208ZM3.66667 44.5423C3.66667 45.1001 3.25508 45.5547 2.75 45.5547C2.24492 45.5547 1.83333 45.1001 1.83333 44.5423V13.1607C1.83333 9.25323 4.71167 6.07457 8.25 6.07457H16.5V8.09919H8.25C5.72275 8.09919 3.66667 10.3698 3.66667 13.1607V44.5423ZM5.5 37.4562V35.4316H8.25V37.4562H5.5ZM10.0833 60.7393V54.6654H30.25V60.7393H10.0833ZM30.25 22.2715V24.2961H10.0833V22.2715C10.0833 20.0384 11.7278 18.2223 13.75 18.2223H26.5833C28.6055 18.2223 30.25 20.0384 30.25 22.2715ZM25.6667 16.1977H14.6667V14.1731H25.6667V16.1977ZM18.3333 12.1484V4.04996H22V12.1484H18.3333ZM27.5 8.09919H23.8333V6.07457H27.5V8.09919ZM33 11.2687L29.3333 8.5689V5.60284L33 2.90301V11.2687Z" fill="white"/>
<path d="M39.1936 49.431L37.8516 50.9131L39.1477 52.3445L40.4897 50.8625C42.753 48.363 43.9996 45.0396 43.9996 41.5056H42.1663C42.1663 44.499 41.1103 47.3133 39.1936 49.431Z" fill="white"/>
<path d="M47.6663 41.5056H45.833V44.4706C45.833 49.357 47.5563 53.9508 50.6849 57.4058L51.9811 55.9744C49.199 52.901 47.6663 48.8164 47.6663 44.4706V41.5056Z" fill="white"/>
</svg>
