<svg width="55" height="55" viewBox="0 0 55 55" fill="none" xmlns="http://www.w3.org/2000/svg">
<path d="M38.6719 14.6094C40.0933 14.6094 41.25 13.4527 41.25 12.0312C41.25 10.6098 40.0933 9.45312 38.6719 9.45312C37.2505 9.45312 36.0938 10.6098 36.0938 12.0312C36.0938 13.4527 37.2505 14.6094 38.6719 14.6094ZM38.6719 11.1719C39.1454 11.1719 39.5312 11.5569 39.5312 12.0312C39.5312 12.5056 39.1454 12.8906 38.6719 12.8906C38.1984 12.8906 37.8125 12.5056 37.8125 12.0312C37.8125 11.5569 38.1984 11.1719 38.6719 11.1719Z" fill="white"/>
<path d="M0.859375 0.859375V6.56391C0.859375 6.87414 0.914375 7.18008 1.02352 7.46969L5.65211 19.812C6.02078 20.7943 6.96438 21.4569 8.01023 21.4801L11.1719 29.3838V30.0781C11.1719 31.9739 12.7136 33.5156 14.6094 33.5156H40.3906C42.2864 33.5156 43.8281 31.9739 43.8281 30.0781V29.3838L46.9898 21.4792C48.0356 21.456 48.9784 20.7934 49.3479 19.8112L53.9765 7.46883C54.0856 7.17922 54.1406 6.87414 54.1406 6.56391V0.859375H0.859375ZM52.4219 2.57812V6.01562H2.57812V2.57812H52.4219ZM34.375 7.73438H42.9688V12.0312C42.9688 14.4005 41.0412 16.3281 38.6719 16.3281C36.3026 16.3281 34.375 14.4005 34.375 12.0312V7.73438ZM9.86305 21.4844H16.6057L19.3557 28.3594H12.613L9.86305 21.4844ZM28.3594 28.3594V21.4844H36.5432L33.7932 28.3594H28.3594ZM26.6406 28.3594H21.2068L18.4568 21.4844H26.6406V28.3594ZM40.3906 31.7969H14.6094C13.6615 31.7969 12.8906 31.026 12.8906 30.0781H42.1094C42.1094 31.026 41.3385 31.7969 40.3906 31.7969ZM42.387 28.3594H35.6443L38.3943 21.4844H45.137L42.387 28.3594ZM47.7383 19.2079C47.6128 19.5413 47.2897 19.7656 46.9339 19.7656H8.06609C7.70945 19.7656 7.38633 19.5413 7.26086 19.2079L2.95883 7.73438H32.6562V12.0312C32.6562 15.3476 35.3547 18.0469 38.6719 18.0469C41.9891 18.0469 44.6875 15.3476 44.6875 12.0312V7.73438H52.0412L47.7383 19.2079Z" fill="white"/>
<path d="M27.4997 52.4219C20.9178 52.4219 14.7277 49.7681 10.0707 44.9496L8.83496 46.145C13.8193 51.3004 20.4477 54.1406 27.4997 54.1406C34.5518 54.1406 41.1801 51.3004 46.1645 46.1441L44.9287 44.9487C40.2718 49.7681 34.0817 52.4219 27.4997 52.4219Z" fill="white"/>
<path d="M12.2852 42.7187C16.4798 46.8892 21.9901 48.9732 27.5004 48.9732C33.0107 48.9732 38.521 46.8884 42.7156 42.7187L41.5039 41.5001C33.7824 49.176 21.2192 49.176 13.4969 41.5001L12.2852 42.7187Z" fill="white"/>
<path d="M39.2575 39.3009L38.0879 38.042C32.2502 43.462 22.7515 43.462 16.9137 38.042L15.7441 39.3009C18.9857 42.3113 23.243 43.8161 27.5012 43.8161C31.7595 43.8161 36.0159 42.3113 39.2575 39.3009Z" fill="white"/>
</svg>
