<svg width="55" height="58" viewBox="0 0 55 58" fill="none" xmlns="http://www.w3.org/2000/svg">
<path d="M43.4319 45.6731C42.964 45.3006 42.2953 45.3941 41.9378 45.8811C41.5803 46.3682 41.6698 47.0649 42.1374 47.4372L43.9588 48.8871C44.1514 49.0404 44.3791 49.1152 44.6056 49.1152C44.8971 49.1152 45.1865 48.9911 45.396 48.7503L48.8773 44.7466C49.2724 44.2922 49.2392 43.5901 48.8028 43.1786C48.3666 42.7671 47.6925 42.8019 47.2974 43.2562L44.4742 46.5031L43.4319 45.6731Z" fill="white"/>
<path d="M54.7482 39.747C54.736 39.181 54.3168 38.7154 53.7755 38.6661C51.24 38.4353 48.12 36.6613 45.8264 34.1469C45.6252 33.9264 45.3461 33.8015 45.054 33.8014C45.0539 33.8014 45.0538 33.8014 45.0537 33.8014C44.7619 33.8014 44.4828 33.9261 44.2815 34.1463C43.2521 35.2735 42.0571 36.2512 40.8239 37.0084C38.6601 34.4924 35.9968 32.6386 32.8754 31.4718C32.8482 31.4603 32.8207 31.4501 32.7926 31.441C32.5495 31.3513 32.3035 31.2657 32.0548 31.1842C34.6946 28.4419 36.4703 24.8382 36.4703 21.6053V19.8611C37.7181 19.2952 38.5933 17.9979 38.5933 16.4911C38.5933 14.9259 37.6475 13.5871 36.3202 13.0604C35.7724 7.5206 32.0253 2.86374 26.8781 1.32308C26.726 0.568508 26.0824 0 25.3135 0H21.4513C20.7097 0 20.0863 0.52932 19.9064 1.24392C17.3746 1.9472 15.062 3.44835 13.3281 5.53543C11.5682 7.65382 10.4738 10.2993 10.1959 13.0609C8.86798 13.588 7.92186 14.9264 7.92186 16.4912C7.92186 17.9985 8.79828 19.2962 10.0478 19.8618V21.6054C10.0478 24.8353 11.8238 28.4404 14.4635 31.1846C14.2221 31.2636 13.983 31.3463 13.7468 31.4331C13.7003 31.4469 13.6551 31.4639 13.6111 31.484C10.1173 32.7967 7.20051 34.9697 4.91625 37.9706C2.71939 40.8568 1.15765 44.4209 0.274518 48.5649C-0.0397913 50.0458 -0.276189 51.9069 0.693277 53.1642C1.64025 54.3924 3.33469 54.5498 4.70522 54.5498H11.6773C12.2659 54.5498 12.7431 54.0527 12.7431 53.4396C12.7431 52.8266 12.2659 52.3295 11.6773 52.3295H4.70522C3.43019 52.3295 2.63956 52.1425 2.35531 51.7739C2.05422 51.3833 2.05443 50.4649 2.35563 49.045C3.46333 43.8482 6.17178 37.4887 12.6975 34.2778C12.4968 38.0282 14.4477 40.4796 15.6878 42.0355C15.8776 42.2737 16.1543 42.4185 16.4512 42.4351C16.7478 42.4521 17.0379 42.3382 17.2509 42.1224L23.2577 36.0379L29.2673 42.1227C29.4667 42.3245 29.7334 42.4367 30.0101 42.4367C30.0292 42.4367 30.0483 42.4362 30.0676 42.4351C30.3644 42.4184 30.6412 42.2733 30.8309 42.0347C32.0693 40.4775 34.0174 38.0246 33.8185 34.2821C35.7117 35.2175 37.3844 36.4685 38.8228 38.027C37.9639 38.3732 37.1194 38.5945 36.3318 38.6662C35.7908 38.7154 35.3718 39.1806 35.3592 39.7463C35.27 43.7154 35.9051 46.559 37.6234 49.8874C37.6379 49.9156 38.2185 50.9997 39.1233 52.3297H21.3264C20.7378 52.3297 20.2606 52.8268 20.2606 53.4399C20.2606 54.0529 20.7378 54.55 21.3264 54.55H40.816C42.101 56.0292 43.6165 57.2881 45.0536 57.2881C48.5209 57.2881 52.4457 49.9614 52.4834 49.8882C54.199 46.5593 54.8339 43.7161 54.7482 39.747ZM34.1447 12.8207H28.2765C27.1678 9.80407 26.9581 7.31656 26.9205 3.66494C30.7647 5.08116 33.5594 8.61432 34.1447 12.8207ZM21.9837 2.2203H24.781C24.7878 6.51747 24.8923 9.42784 26.0092 12.8207H20.7577C21.8726 9.42773 21.9771 6.51703 21.9837 2.2203ZM19.8454 3.57735C19.8102 7.27704 19.6064 9.77987 18.4909 12.8208H12.3729C12.9809 8.5597 15.9217 4.93073 19.8454 3.57735ZM11.4487 15.041H18.5788C18.6416 15.094 18.7024 15.1008 18.7533 15.041H35.0694C35.8371 15.041 36.4616 15.6914 36.4616 16.4912C36.4616 17.2926 35.8372 17.9446 35.0694 17.9446H11.4487C10.6794 17.9446 10.0535 17.2926 10.0535 16.4912C10.0535 15.6915 10.6793 15.041 11.4487 15.041ZM12.1795 21.6054V20.1648H34.3385V21.6054C34.3385 25.838 30.4018 31.0727 25.9139 32.8079C23.9501 33.5681 22.5559 33.5674 20.5876 32.8055C16.1085 31.0631 12.1795 25.8293 12.1795 21.6054ZM16.6028 39.6818C15.4997 38.1817 14.4375 36.2123 14.948 33.3536C15.4182 33.1955 15.904 33.0513 16.4077 32.9237C17.4824 33.745 18.6416 34.4187 19.8433 34.8861C20.2301 35.0358 20.6023 35.1591 20.9664 35.2617L16.6028 39.6818ZM29.9142 39.6811L25.548 35.2604C25.9074 35.1588 26.2747 35.037 26.656 34.8894C27.8637 34.4224 29.0285 33.7475 30.1083 32.9235C30.6058 33.0496 31.0924 33.1925 31.5671 33.3526C32.0788 36.2073 31.017 38.1787 29.9142 39.6811ZM50.6049 48.8386C49.3445 51.2888 46.3927 55.0676 45.0536 55.0676C43.7145 55.0676 40.7627 51.2888 39.5016 48.8371C38.0931 46.1092 37.5151 43.8344 37.4838 40.7371C38.6336 40.5092 39.8306 40.0622 41.0077 39.4381C41.049 39.4193 41.0893 39.3972 41.1288 39.3726C42.5033 38.6285 43.8475 37.6436 45.0532 36.4732C47.3232 38.6791 50.0867 40.2347 52.6226 40.7372C52.589 43.8349 52.0112 46.1102 50.6049 48.8386Z" fill="white"/>
<path d="M16.5024 52.3291C15.9137 52.3291 15.4365 52.8263 15.4365 53.4395C15.4365 54.0526 15.9137 54.5498 16.5024 54.5498H16.5084C17.0971 54.5498 17.5712 54.0526 17.5712 53.4395C17.5712 52.8263 17.091 52.3291 16.5024 52.3291Z" fill="white"/>
</svg>
